<?xml version="1.0" encoding="UTF-8" standalone="no"?>
<!DOCTYPE svg PUBLIC "-//W3C//DTD SVG 1.1//EN"
 "http://www.w3.org/Graphics/SVG/1.1/DTD/svg11.dtd">
<!-- Generated by graphviz version 2.47.0 (20210316.0004)
 -->
<!-- Title: dependencies Pages: 1 -->
<svg width="1940pt" height="284pt"
 viewBox="0.00 0.00 1940.00 284.00" xmlns="http://www.w3.org/2000/svg" xmlns:xlink="http://www.w3.org/1999/xlink">
<g id="graph0" class="graph" transform="scale(1 1) rotate(0) translate(4 280)">
<title>dependencies</title>
<polygon fill="white" stroke="transparent" points="-4,4 -4,-280 1936,-280 1936,4 -4,4"/>
<text text-anchor="start" x="945.01" y="-42.4" font-family="Times-12" font-weight="bold" font-size="14.00">Legend</text>
<polygon fill="#ffffb3" stroke="transparent" points="732,-10 732,-30 752,-30 752,-10 732,-10"/>
<text text-anchor="start" x="755.63" y="-15.4" font-family="Times-12" font-size="14.00"> &#160;Declarations</text>
<polygon fill="#8dd3c7" stroke="transparent" points="845,-10 845,-30 865,-30 865,-10 845,-10"/>
<text text-anchor="start" x="868.73" y="-15.4" font-family="Times-12" font-size="14.00"> &#160;Module</text>
<polygon fill="#80b1d3" stroke="transparent" points="931,-10 931,-30 951,-30 951,-10 931,-10"/>
<text text-anchor="start" x="954.78" y="-15.4" font-family="Times-12" font-size="14.00"> &#160;Bootstrap</text>
<polygon fill="#fdb462" stroke="transparent" points="1028,-10 1028,-30 1048,-30 1048,-10 1028,-10"/>
<text text-anchor="start" x="1051.67" y="-15.4" font-family="Times-12" font-size="14.00"> &#160;Providers</text>
<polygon fill="#fb8072" stroke="transparent" points="1124,-10 1124,-30 1144,-30 1144,-10 1124,-10"/>
<text text-anchor="start" x="1147.73" y="-15.4" font-family="Times-12" font-size="14.00"> &#160;Exports</text>
<g id="clust1" class="cluster">
<title>cluster_AppModule</title>
<polygon fill="none" stroke="black" stroke-dasharray="1,5" points="8,-70 8,-268 1924,-268 1924,-70 8,-70"/>
</g>
<g id="clust2" class="cluster">
<title>cluster_AppModule_declarations</title>
<polygon fill="none" stroke="black" points="16,-78 16,-130 1916,-130 1916,-78 16,-78"/>
</g>
<g id="clust16" class="cluster">
<title>cluster_AppModule_bootstrap</title>
<polygon fill="none" stroke="black" points="963,-208 963,-260 1087,-260 1087,-208 963,-208"/>
</g>
<!-- AppComponent -->
<g id="node1" class="node">
<title>AppComponent</title>
<polygon fill="#ffffb3" stroke="black" points="1907.94,-122 1802.06,-122 1802.06,-86 1907.94,-86 1907.94,-122"/>
<text text-anchor="middle" x="1855" y="-99.8" font-family="Times,serif" font-size="14.00">AppComponent</text>
</g>
<!-- AppModule -->
<g id="node12" class="node">
<title>AppModule</title>
<polygon fill="#8dd3c7" stroke="black" points="1066.66,-187 1063.66,-191 1042.66,-191 1039.66,-187 983.34,-187 983.34,-151 1066.66,-151 1066.66,-187"/>
<text text-anchor="middle" x="1025" y="-164.8" font-family="Times,serif" font-size="14.00">AppModule</text>
</g>
<!-- AppComponent&#45;&gt;AppModule -->
<g id="edge1" class="edge">
<title>AppComponent&#45;&gt;AppModule</title>
<path fill="none" stroke="black" d="M1855,-122.25C1855,-145.02 1855,-181 1855,-181 1855,-181 1076.73,-181 1076.73,-181"/>
<polygon fill="black" stroke="black" points="1076.73,-177.5 1066.73,-181 1076.73,-184.5 1076.73,-177.5"/>
</g>
<!-- MenuComponent -->
<g id="node2" class="node">
<title>MenuComponent</title>
<polygon fill="#ffffb3" stroke="black" points="1783.99,-122 1670.01,-122 1670.01,-86 1783.99,-86 1783.99,-122"/>
<text text-anchor="middle" x="1727" y="-99.8" font-family="Times,serif" font-size="14.00">MenuComponent</text>
</g>
<!-- MenuComponent&#45;&gt;AppModule -->
<g id="edge2" class="edge">
<title>MenuComponent&#45;&gt;AppModule</title>
<path fill="none" stroke="black" d="M1727,-122.28C1727,-143.32 1727,-175 1727,-175 1727,-175 1076.81,-175 1076.81,-175"/>
<polygon fill="black" stroke="black" points="1076.81,-171.5 1066.81,-175 1076.81,-178.5 1076.81,-171.5"/>
</g>
<!-- MenuImageItemComponent -->
<g id="node3" class="node">
<title>MenuImageItemComponent</title>
<polygon fill="#ffffb3" stroke="black" points="1652.13,-122 1477.87,-122 1477.87,-86 1652.13,-86 1652.13,-122"/>
<text text-anchor="middle" x="1565" y="-99.8" font-family="Times,serif" font-size="14.00">MenuImageItemComponent</text>
</g>
<!-- MenuImageItemComponent&#45;&gt;AppModule -->
<g id="edge3" class="edge">
<title>MenuImageItemComponent&#45;&gt;AppModule</title>
<path fill="none" stroke="black" d="M1565,-122.11C1565,-141.34 1565,-169 1565,-169 1565,-169 1076.92,-169 1076.92,-169"/>
<polygon fill="black" stroke="black" points="1076.92,-165.5 1066.92,-169 1076.92,-172.5 1076.92,-165.5"/>
</g>
<!-- MenuIndentItemComponent -->
<g id="node4" class="node">
<title>MenuIndentItemComponent</title>
<polygon fill="#ffffb3" stroke="black" points="1459.91,-122 1284.09,-122 1284.09,-86 1459.91,-86 1459.91,-122"/>
<text text-anchor="middle" x="1372" y="-99.8" font-family="Times,serif" font-size="14.00">MenuIndentItemComponent</text>
</g>
<!-- MenuIndentItemComponent&#45;&gt;AppModule -->
<g id="edge4" class="edge">
<title>MenuIndentItemComponent&#45;&gt;AppModule</title>
<path fill="none" stroke="black" d="M1372,-122.02C1372,-139.37 1372,-163 1372,-163 1372,-163 1076.86,-163 1076.86,-163"/>
<polygon fill="black" stroke="black" points="1076.86,-159.5 1066.86,-163 1076.86,-166.5 1076.86,-159.5"/>
</g>
<!-- MenuItemComponent -->
<g id="node5" class="node">
<title>MenuItemComponent</title>
<polygon fill="#ffffb3" stroke="black" points="1265.65,-122 1126.35,-122 1126.35,-86 1265.65,-86 1265.65,-122"/>
<text text-anchor="middle" x="1196" y="-99.8" font-family="Times,serif" font-size="14.00">MenuItemComponent</text>
</g>
<!-- MenuItemComponent&#45;&gt;AppModule -->
<g id="edge5" class="edge">
<title>MenuItemComponent&#45;&gt;AppModule</title>
<path fill="none" stroke="black" d="M1196,-122.24C1196,-137.57 1196,-157 1196,-157 1196,-157 1076.83,-157 1076.83,-157"/>
<polygon fill="black" stroke="black" points="1076.83,-153.5 1066.83,-157 1076.83,-160.5 1076.83,-153.5"/>
</g>
<!-- MenuLinkItemComponent -->
<g id="node6" class="node">
<title>MenuLinkItemComponent</title>
<polygon fill="#ffffb3" stroke="black" points="1108.09,-122 941.91,-122 941.91,-86 1108.09,-86 1108.09,-122"/>
<text text-anchor="middle" x="1025" y="-99.8" font-family="Times,serif" font-size="14.00">MenuLinkItemComponent</text>
</g>
<!-- MenuLinkItemComponent&#45;&gt;AppModule -->
<g id="edge6" class="edge">
<title>MenuLinkItemComponent&#45;&gt;AppModule</title>
<path fill="none" stroke="black" d="M1025,-122.11C1025,-122.11 1025,-140.99 1025,-140.99"/>
<polygon fill="black" stroke="black" points="1021.5,-140.99 1025,-150.99 1028.5,-140.99 1021.5,-140.99"/>
</g>
<!-- MenuListItemComponent -->
<g id="node7" class="node">
<title>MenuListItemComponent</title>
<polygon fill="#ffffb3" stroke="black" points="923.93,-122 762.07,-122 762.07,-86 923.93,-86 923.93,-122"/>
<text text-anchor="middle" x="843" y="-99.8" font-family="Times,serif" font-size="14.00">MenuListItemComponent</text>
</g>
<!-- MenuListItemComponent&#45;&gt;AppModule -->
<g id="edge7" class="edge">
<title>MenuListItemComponent&#45;&gt;AppModule</title>
<path fill="none" stroke="black" d="M843,-122.24C843,-137.57 843,-157 843,-157 843,-157 973.25,-157 973.25,-157"/>
<polygon fill="black" stroke="black" points="973.25,-160.5 983.25,-157 973.25,-153.5 973.25,-160.5"/>
</g>
<!-- MenuMarkItemComponent -->
<g id="node8" class="node">
<title>MenuMarkItemComponent</title>
<polygon fill="#ffffb3" stroke="black" points="743.97,-122 574.03,-122 574.03,-86 743.97,-86 743.97,-122"/>
<text text-anchor="middle" x="659" y="-99.8" font-family="Times,serif" font-size="14.00">MenuMarkItemComponent</text>
</g>
<!-- MenuMarkItemComponent&#45;&gt;AppModule -->
<g id="edge8" class="edge">
<title>MenuMarkItemComponent&#45;&gt;AppModule</title>
<path fill="none" stroke="black" d="M659,-122.02C659,-139.37 659,-163 659,-163 659,-163 973.02,-163 973.02,-163"/>
<polygon fill="black" stroke="black" points="973.02,-166.5 983.02,-163 973.02,-159.5 973.02,-166.5"/>
</g>
<!-- MenuNodeItemComponent -->
<g id="node9" class="node">
<title>MenuNodeItemComponent</title>
<polygon fill="#ffffb3" stroke="black" points="555.97,-122 386.03,-122 386.03,-86 555.97,-86 555.97,-122"/>
<text text-anchor="middle" x="471" y="-99.8" font-family="Times,serif" font-size="14.00">MenuNodeItemComponent</text>
</g>
<!-- MenuNodeItemComponent&#45;&gt;AppModule -->
<g id="edge9" class="edge">
<title>MenuNodeItemComponent&#45;&gt;AppModule</title>
<path fill="none" stroke="black" d="M471,-122.11C471,-141.34 471,-169 471,-169 471,-169 972.91,-169 972.91,-169"/>
<polygon fill="black" stroke="black" points="972.91,-172.5 982.91,-169 972.91,-165.5 972.91,-172.5"/>
</g>
<!-- MenuSchemaItemComponent -->
<g id="node10" class="node">
<title>MenuSchemaItemComponent</title>
<polygon fill="#ffffb3" stroke="black" points="367.97,-122 184.03,-122 184.03,-86 367.97,-86 367.97,-122"/>
<text text-anchor="middle" x="276" y="-99.8" font-family="Times,serif" font-size="14.00">MenuSchemaItemComponent</text>
</g>
<!-- MenuSchemaItemComponent&#45;&gt;AppModule -->
<g id="edge10" class="edge">
<title>MenuSchemaItemComponent&#45;&gt;AppModule</title>
<path fill="none" stroke="black" d="M276,-122.28C276,-143.32 276,-175 276,-175 276,-175 973.13,-175 973.13,-175"/>
<polygon fill="black" stroke="black" points="973.13,-178.5 983.13,-175 973.13,-171.5 973.13,-178.5"/>
</g>
<!-- TextEditorComponent -->
<g id="node11" class="node">
<title>TextEditorComponent</title>
<polygon fill="#ffffb3" stroke="black" points="165.98,-122 24.02,-122 24.02,-86 165.98,-86 165.98,-122"/>
<text text-anchor="middle" x="95" y="-99.8" font-family="Times,serif" font-size="14.00">TextEditorComponent</text>
</g>
<!-- TextEditorComponent&#45;&gt;AppModule -->
<g id="edge11" class="edge">
<title>TextEditorComponent&#45;&gt;AppModule</title>
<path fill="none" stroke="black" d="M95,-122.25C95,-145.02 95,-181 95,-181 95,-181 973.23,-181 973.23,-181"/>
<polygon fill="black" stroke="black" points="973.23,-184.5 983.23,-181 973.23,-177.5 973.23,-184.5"/>
</g>
<!-- AppComponent  -->
<g id="node13" class="node">
<title>AppComponent </title>
<polygon fill="#80b1d3" stroke="black" points="1079.44,-252 970.56,-252 970.56,-216 1079.44,-216 1079.44,-252"/>
<text text-anchor="middle" x="1025" y="-229.8" font-family="Times,serif" font-size="14.00">AppComponent </text>
</g>
<!-- AppModule&#45;&gt;AppComponent  -->
<g id="edge12" class="edge">
<title>AppModule&#45;&gt;AppComponent </title>
<path fill="none" stroke="black" stroke-dasharray="1,5" d="M1025,-187.11C1025,-187.11 1025,-205.99 1025,-205.99"/>
<polygon fill="black" stroke="black" points="1021.5,-205.99 1025,-215.99 1028.5,-205.99 1021.5,-205.99"/>
</g>
</g>
</svg>
