<?xml version="1.0" encoding="UTF-8" standalone="no"?>
<!DOCTYPE svg PUBLIC "-//W3C//DTD SVG 1.1//EN"
 "http://www.w3.org/Graphics/SVG/1.1/DTD/svg11.dtd">
<!-- Generated by graphviz version 2.47.0 (20210316.0004)
 -->
<!-- Title: dependencies Pages: 1 -->
<svg width="2170pt" height="284pt"
 viewBox="0.00 0.00 2170.00 284.00" xmlns="http://www.w3.org/2000/svg" xmlns:xlink="http://www.w3.org/1999/xlink">
<g id="graph0" class="graph" transform="scale(1 1) rotate(0) translate(4 280)">
<title>dependencies</title>
<polygon fill="white" stroke="transparent" points="-4,4 -4,-280 2166,-280 2166,4 -4,4"/>
<text text-anchor="start" x="1060.01" y="-42.4" font-family="Times-12" font-weight="bold" font-size="14.00">Legend</text>
<polygon fill="#ffffb3" stroke="transparent" points="847,-10 847,-30 867,-30 867,-10 847,-10"/>
<text text-anchor="start" x="870.63" y="-15.4" font-family="Times-12" font-size="14.00"> &#160;Declarations</text>
<polygon fill="#8dd3c7" stroke="transparent" points="960,-10 960,-30 980,-30 980,-10 960,-10"/>
<text text-anchor="start" x="983.73" y="-15.4" font-family="Times-12" font-size="14.00"> &#160;Module</text>
<polygon fill="#80b1d3" stroke="transparent" points="1046,-10 1046,-30 1066,-30 1066,-10 1046,-10"/>
<text text-anchor="start" x="1069.78" y="-15.4" font-family="Times-12" font-size="14.00"> &#160;Bootstrap</text>
<polygon fill="#fdb462" stroke="transparent" points="1143,-10 1143,-30 1163,-30 1163,-10 1143,-10"/>
<text text-anchor="start" x="1166.67" y="-15.4" font-family="Times-12" font-size="14.00"> &#160;Providers</text>
<polygon fill="#fb8072" stroke="transparent" points="1239,-10 1239,-30 1259,-30 1259,-10 1239,-10"/>
<text text-anchor="start" x="1262.73" y="-15.4" font-family="Times-12" font-size="14.00"> &#160;Exports</text>
<g id="clust1" class="cluster">
<title>cluster_AppModule</title>
<polygon fill="none" stroke="black" stroke-dasharray="1,5" points="8,-70 8,-268 2154,-268 2154,-70 8,-70"/>
</g>
<g id="clust2" class="cluster">
<title>cluster_AppModule_declarations</title>
<polygon fill="none" stroke="black" points="16,-78 16,-130 2146,-130 2146,-78 16,-78"/>
</g>
<g id="clust17" class="cluster">
<title>cluster_AppModule_bootstrap</title>
<polygon fill="none" stroke="black" points="1102,-208 1102,-260 1226,-260 1226,-208 1102,-208"/>
</g>
<!-- AppComponent -->
<g id="node1" class="node">
<title>AppComponent</title>
<polygon fill="#ffffb3" stroke="black" points="2137.94,-122 2032.06,-122 2032.06,-86 2137.94,-86 2137.94,-122"/>
<text text-anchor="middle" x="2085" y="-99.8" font-family="Times,serif" font-size="14.00">AppComponent</text>
</g>
<!-- AppModule -->
<g id="node13" class="node">
<title>AppModule</title>
<polygon fill="#8dd3c7" stroke="black" points="1205.66,-187 1202.66,-191 1181.66,-191 1178.66,-187 1122.34,-187 1122.34,-151 1205.66,-151 1205.66,-187"/>
<text text-anchor="middle" x="1164" y="-164.8" font-family="Times,serif" font-size="14.00">AppModule</text>
</g>
<!-- AppComponent&#45;&gt;AppModule -->
<g id="edge1" class="edge">
<title>AppComponent&#45;&gt;AppModule</title>
<path fill="none" stroke="black" d="M2085,-122.25C2085,-145.02 2085,-181 2085,-181 2085,-181 1215.66,-181 1215.66,-181"/>
<polygon fill="black" stroke="black" points="1215.66,-177.5 1205.66,-181 1215.66,-184.5 1215.66,-177.5"/>
</g>
<!-- MenuComponent -->
<g id="node2" class="node">
<title>MenuComponent</title>
<polygon fill="#ffffb3" stroke="black" points="2013.99,-122 1900.01,-122 1900.01,-86 2013.99,-86 2013.99,-122"/>
<text text-anchor="middle" x="1957" y="-99.8" font-family="Times,serif" font-size="14.00">MenuComponent</text>
</g>
<!-- MenuComponent&#45;&gt;AppModule -->
<g id="edge2" class="edge">
<title>MenuComponent&#45;&gt;AppModule</title>
<path fill="none" stroke="black" d="M1957,-122.28C1957,-143.32 1957,-175 1957,-175 1957,-175 1215.8,-175 1215.8,-175"/>
<polygon fill="black" stroke="black" points="1215.8,-171.5 1205.8,-175 1215.8,-178.5 1215.8,-171.5"/>
</g>
<!-- MenuImageItemComponent -->
<g id="node3" class="node">
<title>MenuImageItemComponent</title>
<polygon fill="#ffffb3" stroke="black" points="1882.13,-122 1707.87,-122 1707.87,-86 1882.13,-86 1882.13,-122"/>
<text text-anchor="middle" x="1795" y="-99.8" font-family="Times,serif" font-size="14.00">MenuImageItemComponent</text>
</g>
<!-- MenuImageItemComponent&#45;&gt;AppModule -->
<g id="edge3" class="edge">
<title>MenuImageItemComponent&#45;&gt;AppModule</title>
<path fill="none" stroke="black" d="M1795,-122.11C1795,-141.34 1795,-169 1795,-169 1795,-169 1215.89,-169 1215.89,-169"/>
<polygon fill="black" stroke="black" points="1215.89,-165.5 1205.89,-169 1215.89,-172.5 1215.89,-165.5"/>
</g>
<!-- MenuIndentItemComponent -->
<g id="node4" class="node">
<title>MenuIndentItemComponent</title>
<polygon fill="#ffffb3" stroke="black" points="1689.91,-122 1514.09,-122 1514.09,-86 1689.91,-86 1689.91,-122"/>
<text text-anchor="middle" x="1602" y="-99.8" font-family="Times,serif" font-size="14.00">MenuIndentItemComponent</text>
</g>
<!-- MenuIndentItemComponent&#45;&gt;AppModule -->
<g id="edge4" class="edge">
<title>MenuIndentItemComponent&#45;&gt;AppModule</title>
<path fill="none" stroke="black" d="M1602,-122.02C1602,-139.37 1602,-163 1602,-163 1602,-163 1216,-163 1216,-163"/>
<polygon fill="black" stroke="black" points="1216,-159.5 1206,-163 1216,-166.5 1216,-159.5"/>
</g>
<!-- MenuItemComponent -->
<g id="node5" class="node">
<title>MenuItemComponent</title>
<polygon fill="#ffffb3" stroke="black" points="1495.65,-122 1356.35,-122 1356.35,-86 1495.65,-86 1495.65,-122"/>
<text text-anchor="middle" x="1426" y="-99.8" font-family="Times,serif" font-size="14.00">MenuItemComponent</text>
</g>
<!-- MenuItemComponent&#45;&gt;AppModule -->
<g id="edge5" class="edge">
<title>MenuItemComponent&#45;&gt;AppModule</title>
<path fill="none" stroke="black" d="M1426,-122.24C1426,-137.57 1426,-157 1426,-157 1426,-157 1215.8,-157 1215.8,-157"/>
<polygon fill="black" stroke="black" points="1215.8,-153.5 1205.8,-157 1215.8,-160.5 1215.8,-153.5"/>
</g>
<!-- MenuLinkItemComponent -->
<g id="node6" class="node">
<title>MenuLinkItemComponent</title>
<polygon fill="#ffffb3" stroke="black" points="1338.09,-122 1171.91,-122 1171.91,-86 1338.09,-86 1338.09,-122"/>
<text text-anchor="middle" x="1255" y="-99.8" font-family="Times,serif" font-size="14.00">MenuLinkItemComponent</text>
</g>
<!-- MenuLinkItemComponent&#45;&gt;AppModule -->
<g id="edge6" class="edge">
<title>MenuLinkItemComponent&#45;&gt;AppModule</title>
<path fill="none" stroke="black" d="M1188.89,-122.11C1188.89,-122.11 1188.89,-140.99 1188.89,-140.99"/>
<polygon fill="black" stroke="black" points="1185.39,-140.99 1188.89,-150.99 1192.39,-140.99 1185.39,-140.99"/>
</g>
<!-- MenuListItemComponent -->
<g id="node7" class="node">
<title>MenuListItemComponent</title>
<polygon fill="#ffffb3" stroke="black" points="1153.93,-122 992.07,-122 992.07,-86 1153.93,-86 1153.93,-122"/>
<text text-anchor="middle" x="1073" y="-99.8" font-family="Times,serif" font-size="14.00">MenuListItemComponent</text>
</g>
<!-- MenuListItemComponent&#45;&gt;AppModule -->
<g id="edge7" class="edge">
<title>MenuListItemComponent&#45;&gt;AppModule</title>
<path fill="none" stroke="black" d="M1137.94,-122.11C1137.94,-122.11 1137.94,-140.99 1137.94,-140.99"/>
<polygon fill="black" stroke="black" points="1134.44,-140.99 1137.94,-150.99 1141.44,-140.99 1134.44,-140.99"/>
</g>
<!-- MenuMarkItemComponent -->
<g id="node8" class="node">
<title>MenuMarkItemComponent</title>
<polygon fill="#ffffb3" stroke="black" points="973.97,-122 804.03,-122 804.03,-86 973.97,-86 973.97,-122"/>
<text text-anchor="middle" x="889" y="-99.8" font-family="Times,serif" font-size="14.00">MenuMarkItemComponent</text>
</g>
<!-- MenuMarkItemComponent&#45;&gt;AppModule -->
<g id="edge8" class="edge">
<title>MenuMarkItemComponent&#45;&gt;AppModule</title>
<path fill="none" stroke="black" d="M889,-122.24C889,-137.57 889,-157 889,-157 889,-157 1112.23,-157 1112.23,-157"/>
<polygon fill="black" stroke="black" points="1112.23,-160.5 1122.23,-157 1112.23,-153.5 1112.23,-160.5"/>
</g>
<!-- MenuNodeItemComponent -->
<g id="node9" class="node">
<title>MenuNodeItemComponent</title>
<polygon fill="#ffffb3" stroke="black" points="785.97,-122 616.03,-122 616.03,-86 785.97,-86 785.97,-122"/>
<text text-anchor="middle" x="701" y="-99.8" font-family="Times,serif" font-size="14.00">MenuNodeItemComponent</text>
</g>
<!-- MenuNodeItemComponent&#45;&gt;AppModule -->
<g id="edge9" class="edge">
<title>MenuNodeItemComponent&#45;&gt;AppModule</title>
<path fill="none" stroke="black" d="M701,-122.02C701,-139.37 701,-163 701,-163 701,-163 1112.1,-163 1112.1,-163"/>
<polygon fill="black" stroke="black" points="1112.1,-166.5 1122.1,-163 1112.1,-159.5 1112.1,-166.5"/>
</g>
<!-- MenuRemoveLinkItemComponent -->
<g id="node10" class="node">
<title>MenuRemoveLinkItemComponent</title>
<polygon fill="#ffffb3" stroke="black" points="598.25,-122 385.75,-122 385.75,-86 598.25,-86 598.25,-122"/>
<text text-anchor="middle" x="492" y="-99.8" font-family="Times,serif" font-size="14.00">MenuRemoveLinkItemComponent</text>
</g>
<!-- MenuRemoveLinkItemComponent&#45;&gt;AppModule -->
<g id="edge10" class="edge">
<title>MenuRemoveLinkItemComponent&#45;&gt;AppModule</title>
<path fill="none" stroke="black" d="M492,-122.11C492,-141.34 492,-169 492,-169 492,-169 1112.22,-169 1112.22,-169"/>
<polygon fill="black" stroke="black" points="1112.22,-172.5 1122.22,-169 1112.22,-165.5 1112.22,-172.5"/>
</g>
<!-- MenuSchemaItemComponent -->
<g id="node11" class="node">
<title>MenuSchemaItemComponent</title>
<polygon fill="#ffffb3" stroke="black" points="367.97,-122 184.03,-122 184.03,-86 367.97,-86 367.97,-122"/>
<text text-anchor="middle" x="276" y="-99.8" font-family="Times,serif" font-size="14.00">MenuSchemaItemComponent</text>
</g>
<!-- MenuSchemaItemComponent&#45;&gt;AppModule -->
<g id="edge11" class="edge">
<title>MenuSchemaItemComponent&#45;&gt;AppModule</title>
<path fill="none" stroke="black" d="M276,-122.28C276,-143.32 276,-175 276,-175 276,-175 1112.06,-175 1112.06,-175"/>
<polygon fill="black" stroke="black" points="1112.06,-178.5 1122.06,-175 1112.06,-171.5 1112.06,-178.5"/>
</g>
<!-- TextEditorComponent -->
<g id="node12" class="node">
<title>TextEditorComponent</title>
<polygon fill="#ffffb3" stroke="black" points="165.98,-122 24.02,-122 24.02,-86 165.98,-86 165.98,-122"/>
<text text-anchor="middle" x="95" y="-99.8" font-family="Times,serif" font-size="14.00">TextEditorComponent</text>
</g>
<!-- TextEditorComponent&#45;&gt;AppModule -->
<g id="edge12" class="edge">
<title>TextEditorComponent&#45;&gt;AppModule</title>
<path fill="none" stroke="black" d="M95,-122.25C95,-145.02 95,-181 95,-181 95,-181 1112.09,-181 1112.09,-181"/>
<polygon fill="black" stroke="black" points="1112.09,-184.5 1122.09,-181 1112.09,-177.5 1112.09,-184.5"/>
</g>
<!-- AppComponent  -->
<g id="node14" class="node">
<title>AppComponent </title>
<polygon fill="#80b1d3" stroke="black" points="1218.44,-252 1109.56,-252 1109.56,-216 1218.44,-216 1218.44,-252"/>
<text text-anchor="middle" x="1164" y="-229.8" font-family="Times,serif" font-size="14.00">AppComponent </text>
</g>
<!-- AppModule&#45;&gt;AppComponent  -->
<g id="edge13" class="edge">
<title>AppModule&#45;&gt;AppComponent </title>
<path fill="none" stroke="black" stroke-dasharray="1,5" d="M1164,-187.11C1164,-187.11 1164,-205.99 1164,-205.99"/>
<polygon fill="black" stroke="black" points="1160.5,-205.99 1164,-215.99 1167.5,-205.99 1160.5,-205.99"/>
</g>
</g>
</svg>
