<?xml version="1.0" encoding="UTF-8" standalone="no"?>
<!DOCTYPE svg PUBLIC "-//W3C//DTD SVG 1.1//EN"
 "http://www.w3.org/Graphics/SVG/1.1/DTD/svg11.dtd">
<!-- Generated by graphviz version 2.47.0 (20210316.0004)
 -->
<!-- Title: dependencies Pages: 1 -->
<svg width="3393pt" height="284pt"
 viewBox="0.00 0.00 3393.00 284.00" xmlns="http://www.w3.org/2000/svg" xmlns:xlink="http://www.w3.org/1999/xlink">
<g id="graph0" class="graph" transform="scale(1 1) rotate(0) translate(4 280)">
<title>dependencies</title>
<polygon fill="white" stroke="transparent" points="-4,4 -4,-280 3389,-280 3389,4 -4,4"/>
<text text-anchor="start" x="1671.51" y="-42.4" font-family="Times-12" font-weight="bold" font-size="14.00">Legend</text>
<polygon fill="#ffffb3" stroke="transparent" points="1458.5,-10 1458.5,-30 1478.5,-30 1478.5,-10 1458.5,-10"/>
<text text-anchor="start" x="1482.13" y="-15.4" font-family="Times-12" font-size="14.00"> &#160;Declarations</text>
<polygon fill="#8dd3c7" stroke="transparent" points="1571.5,-10 1571.5,-30 1591.5,-30 1591.5,-10 1571.5,-10"/>
<text text-anchor="start" x="1595.23" y="-15.4" font-family="Times-12" font-size="14.00"> &#160;Module</text>
<polygon fill="#80b1d3" stroke="transparent" points="1657.5,-10 1657.5,-30 1677.5,-30 1677.5,-10 1657.5,-10"/>
<text text-anchor="start" x="1681.28" y="-15.4" font-family="Times-12" font-size="14.00"> &#160;Bootstrap</text>
<polygon fill="#fdb462" stroke="transparent" points="1754.5,-10 1754.5,-30 1774.5,-30 1774.5,-10 1754.5,-10"/>
<text text-anchor="start" x="1778.17" y="-15.4" font-family="Times-12" font-size="14.00"> &#160;Providers</text>
<polygon fill="#fb8072" stroke="transparent" points="1850.5,-10 1850.5,-30 1870.5,-30 1870.5,-10 1850.5,-10"/>
<text text-anchor="start" x="1874.23" y="-15.4" font-family="Times-12" font-size="14.00"> &#160;Exports</text>
<g id="clust1" class="cluster">
<title>cluster_AppModule</title>
<polygon fill="none" stroke="black" stroke-dasharray="1,5" points="8,-70 8,-268 3377,-268 3377,-70 8,-70"/>
</g>
<g id="clust22" class="cluster">
<title>cluster_AppModule_bootstrap</title>
<polygon fill="none" stroke="black" points="1645,-208 1645,-260 1769,-260 1769,-208 1645,-208"/>
</g>
<g id="clust2" class="cluster">
<title>cluster_AppModule_declarations</title>
<polygon fill="none" stroke="black" points="16,-78 16,-130 3369,-130 3369,-78 16,-78"/>
</g>
<!-- AppComponent -->
<g id="node1" class="node">
<title>AppComponent</title>
<polygon fill="#ffffb3" stroke="black" points="3360.94,-122 3255.06,-122 3255.06,-86 3360.94,-86 3360.94,-122"/>
<text text-anchor="middle" x="3308" y="-99.8" font-family="Times,serif" font-size="14.00">AppComponent</text>
</g>
<!-- AppModule -->
<g id="node18" class="node">
<title>AppModule</title>
<polygon fill="#8dd3c7" stroke="black" points="1748.66,-187 1745.66,-191 1724.66,-191 1721.66,-187 1665.34,-187 1665.34,-151 1748.66,-151 1748.66,-187"/>
<text text-anchor="middle" x="1707" y="-164.8" font-family="Times,serif" font-size="14.00">AppModule</text>
</g>
<!-- AppComponent&#45;&gt;AppModule -->
<g id="edge1" class="edge">
<title>AppComponent&#45;&gt;AppModule</title>
<path fill="none" stroke="black" d="M3308,-122.32C3308,-145.66 3308,-183 3308,-183 3308,-183 1759,-183 1759,-183"/>
<polygon fill="black" stroke="black" points="1759,-179.5 1749,-183 1759,-186.5 1759,-179.5"/>
</g>
<!-- MenuComponent -->
<g id="node2" class="node">
<title>MenuComponent</title>
<polygon fill="#ffffb3" stroke="black" points="3236.99,-122 3123.01,-122 3123.01,-86 3236.99,-86 3236.99,-122"/>
<text text-anchor="middle" x="3180" y="-99.8" font-family="Times,serif" font-size="14.00">MenuComponent</text>
</g>
<!-- MenuComponent&#45;&gt;AppModule -->
<g id="edge2" class="edge">
<title>MenuComponent&#45;&gt;AppModule</title>
<path fill="none" stroke="black" d="M3180,-122.16C3180,-144.35 3180,-179 3180,-179 3180,-179 1758.71,-179 1758.71,-179"/>
<polygon fill="black" stroke="black" points="1758.71,-175.5 1748.71,-179 1758.71,-182.5 1758.71,-175.5"/>
</g>
<!-- MenuCreateTableElementItemComponent -->
<g id="node3" class="node">
<title>MenuCreateTableElementItemComponent</title>
<polygon fill="#ffffb3" stroke="black" points="3105.21,-122 2850.79,-122 2850.79,-86 3105.21,-86 3105.21,-122"/>
<text text-anchor="middle" x="2978" y="-99.8" font-family="Times,serif" font-size="14.00">MenuCreateTableElementItemComponent</text>
</g>
<!-- MenuCreateTableElementItemComponent&#45;&gt;AppModule -->
<g id="edge3" class="edge">
<title>MenuCreateTableElementItemComponent&#45;&gt;AppModule</title>
<path fill="none" stroke="black" d="M2978,-122.28C2978,-143.32 2978,-175 2978,-175 2978,-175 1758.93,-175 1758.93,-175"/>
<polygon fill="black" stroke="black" points="1758.93,-171.5 1748.93,-175 1758.93,-178.5 1758.93,-171.5"/>
</g>
<!-- MenuCreateTableItemComponent -->
<g id="node4" class="node">
<title>MenuCreateTableItemComponent</title>
<polygon fill="#ffffb3" stroke="black" points="2833.05,-122 2624.95,-122 2624.95,-86 2833.05,-86 2833.05,-122"/>
<text text-anchor="middle" x="2729" y="-99.8" font-family="Times,serif" font-size="14.00">MenuCreateTableItemComponent</text>
</g>
<!-- MenuCreateTableItemComponent&#45;&gt;AppModule -->
<g id="edge4" class="edge">
<title>MenuCreateTableItemComponent&#45;&gt;AppModule</title>
<path fill="none" stroke="black" d="M2729,-122.31C2729,-142.15 2729,-171 2729,-171 2729,-171 1758.97,-171 1758.97,-171"/>
<polygon fill="black" stroke="black" points="1758.97,-167.5 1748.97,-171 1758.97,-174.5 1758.97,-167.5"/>
</g>
<!-- MenuDeleteTableElementItemComponent -->
<g id="node5" class="node">
<title>MenuDeleteTableElementItemComponent</title>
<polygon fill="#ffffb3" stroke="black" points="2607.21,-122 2352.79,-122 2352.79,-86 2607.21,-86 2607.21,-122"/>
<text text-anchor="middle" x="2480" y="-99.8" font-family="Times,serif" font-size="14.00">MenuDeleteTableElementItemComponent</text>
</g>
<!-- MenuDeleteTableElementItemComponent&#45;&gt;AppModule -->
<g id="edge5" class="edge">
<title>MenuDeleteTableElementItemComponent&#45;&gt;AppModule</title>
<path fill="none" stroke="black" d="M2480,-122.22C2480,-140.83 2480,-167 2480,-167 2480,-167 1758.83,-167 1758.83,-167"/>
<polygon fill="black" stroke="black" points="1758.83,-163.5 1748.83,-167 1758.83,-170.5 1758.83,-163.5"/>
</g>
<!-- MenuImageItemComponent -->
<g id="node6" class="node">
<title>MenuImageItemComponent</title>
<polygon fill="#ffffb3" stroke="black" points="2334.13,-122 2159.87,-122 2159.87,-86 2334.13,-86 2334.13,-122"/>
<text text-anchor="middle" x="2247" y="-99.8" font-family="Times,serif" font-size="14.00">MenuImageItemComponent</text>
</g>
<!-- MenuImageItemComponent&#45;&gt;AppModule -->
<g id="edge6" class="edge">
<title>MenuImageItemComponent&#45;&gt;AppModule</title>
<path fill="none" stroke="black" d="M2247,-122.02C2247,-139.37 2247,-163 2247,-163 2247,-163 1758.92,-163 1758.92,-163"/>
<polygon fill="black" stroke="black" points="1758.92,-159.5 1748.92,-163 1758.92,-166.5 1758.92,-159.5"/>
</g>
<!-- MenuIndentItemComponent -->
<g id="node7" class="node">
<title>MenuIndentItemComponent</title>
<polygon fill="#ffffb3" stroke="black" points="2141.91,-122 1966.09,-122 1966.09,-86 2141.91,-86 2141.91,-122"/>
<text text-anchor="middle" x="2054" y="-99.8" font-family="Times,serif" font-size="14.00">MenuIndentItemComponent</text>
</g>
<!-- MenuIndentItemComponent&#45;&gt;AppModule -->
<g id="edge7" class="edge">
<title>MenuIndentItemComponent&#45;&gt;AppModule</title>
<path fill="none" stroke="black" d="M2054,-122.01C2054,-138.05 2054,-159 2054,-159 2054,-159 1758.86,-159 1758.86,-159"/>
<polygon fill="black" stroke="black" points="1758.86,-155.5 1748.86,-159 1758.86,-162.5 1758.86,-155.5"/>
</g>
<!-- MenuItemComponent -->
<g id="node8" class="node">
<title>MenuItemComponent</title>
<polygon fill="#ffffb3" stroke="black" points="1947.65,-122 1808.35,-122 1808.35,-86 1947.65,-86 1947.65,-122"/>
<text text-anchor="middle" x="1878" y="-99.8" font-family="Times,serif" font-size="14.00">MenuItemComponent</text>
</g>
<!-- MenuItemComponent&#45;&gt;AppModule -->
<g id="edge8" class="edge">
<title>MenuItemComponent&#45;&gt;AppModule</title>
<path fill="none" stroke="black" d="M1878,-122.12C1878,-136.78 1878,-155 1878,-155 1878,-155 1758.83,-155 1758.83,-155"/>
<polygon fill="black" stroke="black" points="1758.83,-151.5 1748.83,-155 1758.83,-158.5 1758.83,-151.5"/>
</g>
<!-- MenuLinkItemComponent -->
<g id="node9" class="node">
<title>MenuLinkItemComponent</title>
<polygon fill="#ffffb3" stroke="black" points="1790.09,-122 1623.91,-122 1623.91,-86 1790.09,-86 1790.09,-122"/>
<text text-anchor="middle" x="1707" y="-99.8" font-family="Times,serif" font-size="14.00">MenuLinkItemComponent</text>
</g>
<!-- MenuLinkItemComponent&#45;&gt;AppModule -->
<g id="edge9" class="edge">
<title>MenuLinkItemComponent&#45;&gt;AppModule</title>
<path fill="none" stroke="black" d="M1707,-122.11C1707,-122.11 1707,-140.99 1707,-140.99"/>
<polygon fill="black" stroke="black" points="1703.5,-140.99 1707,-150.99 1710.5,-140.99 1703.5,-140.99"/>
</g>
<!-- MenuListItemComponent -->
<g id="node10" class="node">
<title>MenuListItemComponent</title>
<polygon fill="#ffffb3" stroke="black" points="1605.93,-122 1444.07,-122 1444.07,-86 1605.93,-86 1605.93,-122"/>
<text text-anchor="middle" x="1525" y="-99.8" font-family="Times,serif" font-size="14.00">MenuListItemComponent</text>
</g>
<!-- MenuListItemComponent&#45;&gt;AppModule -->
<g id="edge10" class="edge">
<title>MenuListItemComponent&#45;&gt;AppModule</title>
<path fill="none" stroke="black" d="M1525,-122.12C1525,-136.78 1525,-155 1525,-155 1525,-155 1655.25,-155 1655.25,-155"/>
<polygon fill="black" stroke="black" points="1655.25,-158.5 1665.25,-155 1655.25,-151.5 1655.25,-158.5"/>
</g>
<!-- MenuMarkItemComponent -->
<g id="node11" class="node">
<title>MenuMarkItemComponent</title>
<polygon fill="#ffffb3" stroke="black" points="1425.97,-122 1256.03,-122 1256.03,-86 1425.97,-86 1425.97,-122"/>
<text text-anchor="middle" x="1341" y="-99.8" font-family="Times,serif" font-size="14.00">MenuMarkItemComponent</text>
</g>
<!-- MenuMarkItemComponent&#45;&gt;AppModule -->
<g id="edge11" class="edge">
<title>MenuMarkItemComponent&#45;&gt;AppModule</title>
<path fill="none" stroke="black" d="M1341,-122.01C1341,-138.05 1341,-159 1341,-159 1341,-159 1655.02,-159 1655.02,-159"/>
<polygon fill="black" stroke="black" points="1655.02,-162.5 1665.02,-159 1655.02,-155.5 1655.02,-162.5"/>
</g>
<!-- MenuNodeItemComponent -->
<g id="node12" class="node">
<title>MenuNodeItemComponent</title>
<polygon fill="#ffffb3" stroke="black" points="1237.97,-122 1068.03,-122 1068.03,-86 1237.97,-86 1237.97,-122"/>
<text text-anchor="middle" x="1153" y="-99.8" font-family="Times,serif" font-size="14.00">MenuNodeItemComponent</text>
</g>
<!-- MenuNodeItemComponent&#45;&gt;AppModule -->
<g id="edge12" class="edge">
<title>MenuNodeItemComponent&#45;&gt;AppModule</title>
<path fill="none" stroke="black" d="M1153,-122.02C1153,-139.37 1153,-163 1153,-163 1153,-163 1654.91,-163 1654.91,-163"/>
<polygon fill="black" stroke="black" points="1654.91,-166.5 1664.91,-163 1654.91,-159.5 1654.91,-166.5"/>
</g>
<!-- MenuRemoveElementItemComponent -->
<g id="node13" class="node">
<title>MenuRemoveElementItemComponent</title>
<polygon fill="#ffffb3" stroke="black" points="1050.46,-122 817.54,-122 817.54,-86 1050.46,-86 1050.46,-122"/>
<text text-anchor="middle" x="934" y="-99.8" font-family="Times,serif" font-size="14.00">MenuRemoveElementItemComponent</text>
</g>
<!-- MenuRemoveElementItemComponent&#45;&gt;AppModule -->
<g id="edge13" class="edge">
<title>MenuRemoveElementItemComponent&#45;&gt;AppModule</title>
<path fill="none" stroke="black" d="M934,-122.22C934,-140.83 934,-167 934,-167 934,-167 1655.17,-167 1655.17,-167"/>
<polygon fill="black" stroke="black" points="1655.17,-170.5 1665.17,-167 1655.17,-163.5 1655.17,-170.5"/>
</g>
<!-- MenuSchemaItemComponent -->
<g id="node14" class="node">
<title>MenuSchemaItemComponent</title>
<polygon fill="#ffffb3" stroke="black" points="799.97,-122 616.03,-122 616.03,-86 799.97,-86 799.97,-122"/>
<text text-anchor="middle" x="708" y="-99.8" font-family="Times,serif" font-size="14.00">MenuSchemaItemComponent</text>
</g>
<!-- MenuSchemaItemComponent&#45;&gt;AppModule -->
<g id="edge14" class="edge">
<title>MenuSchemaItemComponent&#45;&gt;AppModule</title>
<path fill="none" stroke="black" d="M708,-122.31C708,-142.15 708,-171 708,-171 708,-171 1655.03,-171 1655.03,-171"/>
<polygon fill="black" stroke="black" points="1655.03,-174.5 1665.03,-171 1655.03,-167.5 1655.03,-174.5"/>
</g>
<!-- MenuToggleTableHeaderComponent -->
<g id="node15" class="node">
<title>MenuToggleTableHeaderComponent</title>
<polygon fill="#ffffb3" stroke="black" points="597.93,-122 372.07,-122 372.07,-86 597.93,-86 597.93,-122"/>
<text text-anchor="middle" x="485" y="-99.8" font-family="Times,serif" font-size="14.00">MenuToggleTableHeaderComponent</text>
</g>
<!-- MenuToggleTableHeaderComponent&#45;&gt;AppModule -->
<g id="edge15" class="edge">
<title>MenuToggleTableHeaderComponent&#45;&gt;AppModule</title>
<path fill="none" stroke="black" d="M485,-122.28C485,-143.32 485,-175 485,-175 485,-175 1655.29,-175 1655.29,-175"/>
<polygon fill="black" stroke="black" points="1655.29,-178.5 1665.29,-175 1655.29,-171.5 1655.29,-178.5"/>
</g>
<!-- MenuWrapItemComponent -->
<g id="node16" class="node">
<title>MenuWrapItemComponent</title>
<polygon fill="#ffffb3" stroke="black" points="354.24,-122 183.76,-122 183.76,-86 354.24,-86 354.24,-122"/>
<text text-anchor="middle" x="269" y="-99.8" font-family="Times,serif" font-size="14.00">MenuWrapItemComponent</text>
</g>
<!-- MenuWrapItemComponent&#45;&gt;AppModule -->
<g id="edge16" class="edge">
<title>MenuWrapItemComponent&#45;&gt;AppModule</title>
<path fill="none" stroke="black" d="M269,-122.16C269,-144.35 269,-179 269,-179 269,-179 1655.13,-179 1655.13,-179"/>
<polygon fill="black" stroke="black" points="1655.13,-182.5 1665.13,-179 1655.13,-175.5 1655.13,-182.5"/>
</g>
<!-- TextEditorComponent -->
<g id="node17" class="node">
<title>TextEditorComponent</title>
<polygon fill="#ffffb3" stroke="black" points="165.98,-122 24.02,-122 24.02,-86 165.98,-86 165.98,-122"/>
<text text-anchor="middle" x="95" y="-99.8" font-family="Times,serif" font-size="14.00">TextEditorComponent</text>
</g>
<!-- TextEditorComponent&#45;&gt;AppModule -->
<g id="edge17" class="edge">
<title>TextEditorComponent&#45;&gt;AppModule</title>
<path fill="none" stroke="black" d="M95,-122.32C95,-145.66 95,-183 95,-183 95,-183 1655.12,-183 1655.12,-183"/>
<polygon fill="black" stroke="black" points="1655.12,-186.5 1665.12,-183 1655.12,-179.5 1655.12,-186.5"/>
</g>
<!-- AppComponent  -->
<g id="node19" class="node">
<title>AppComponent </title>
<polygon fill="#80b1d3" stroke="black" points="1761.44,-252 1652.56,-252 1652.56,-216 1761.44,-216 1761.44,-252"/>
<text text-anchor="middle" x="1707" y="-229.8" font-family="Times,serif" font-size="14.00">AppComponent </text>
</g>
<!-- AppModule&#45;&gt;AppComponent  -->
<g id="edge18" class="edge">
<title>AppModule&#45;&gt;AppComponent </title>
<path fill="none" stroke="black" stroke-dasharray="1,5" d="M1707,-187.11C1707,-187.11 1707,-205.99 1707,-205.99"/>
<polygon fill="black" stroke="black" points="1703.5,-205.99 1707,-215.99 1710.5,-205.99 1703.5,-205.99"/>
</g>
</g>
</svg>
